<?xml version="1.0" encoding="UTF-8" standalone="no"?>
<!-- Created with Inkscape (http://www.inkscape.org/) -->

<svg
   width="500"
   height="65.510002"
   viewBox="0 0 132.29166 17.332855"
   version="1.1"
   id="svg1"
   xml:space="preserve"
   inkscape:version="1.4 (86a8ad7, 2024-10-11)"
   sodipodi:docname="the-assembly.svg"
   xmlns:inkscape="http://www.inkscape.org/namespaces/inkscape"
   xmlns:sodipodi="http://sodipodi.sourceforge.net/DTD/sodipodi-0.dtd"
   xmlns:xlink="http://www.w3.org/1999/xlink"
   xmlns="http://www.w3.org/2000/svg"
   xmlns:svg="http://www.w3.org/2000/svg"><sodipodi:namedview
     id="namedview1"
     pagecolor="#ffffff"
     bordercolor="#000000"
     borderopacity="0.25"
     inkscape:showpageshadow="2"
     inkscape:pageopacity="0.0"
     inkscape:pagecheckerboard="0"
     inkscape:deskcolor="#d1d1d1"
     inkscape:document-units="mm"
     inkscape:zoom="1.4142136"
     inkscape:cx="301.93459"
     inkscape:cy="153.08862"
     inkscape:window-width="1920"
     inkscape:window-height="1009"
     inkscape:window-x="-8"
     inkscape:window-y="-8"
     inkscape:window-maximized="1"
     inkscape:current-layer="layer1" /><defs
     id="defs1"><linearGradient
       id="linearGradient20"
       inkscape:collect="always"><stop
         style="stop-color:#ffff6e;stop-opacity:1;"
         offset="0"
         id="stop17" /><stop
         style="stop-color:#ffff61;stop-opacity:1;"
         offset="0.5"
         id="stop18" /><stop
         style="stop-color:#ffa400;stop-opacity:1;"
         offset="0.5"
         id="stop19" /><stop
         style="stop-color:#ffd000;stop-opacity:1;"
         offset="1"
         id="stop20" /></linearGradient><linearGradient
       id="linearGradient7"
       inkscape:collect="always"><stop
         style="stop-color:#ffff6e;stop-opacity:1;"
         offset="0"
         id="stop7" /><stop
         style="stop-color:#ffff61;stop-opacity:1;"
         offset="0.5"
         id="stop9" /><stop
         style="stop-color:#fff200;stop-opacity:1;"
         offset="0.5"
         id="stop10" /><stop
         style="stop-color:#ffd000;stop-opacity:1;"
         offset="1"
         id="stop8" /></linearGradient><rect
       x="54.248161"
       y="197.51895"
       width="616.20349"
       height="190.56406"
       id="rect6" /><rect
       x="37.556419"
       y="171.09036"
       width="766.4292"
       height="221.16559"
       id="rect5" /><rect
       x="57.030121"
       y="182.21819"
       width="635.67719"
       height="173.87231"
       id="rect4" /><rect
       x="127.97003"
       y="157.18057"
       width="438.15823"
       height="183.60918"
       id="rect2" /><rect
       x="51.466206"
       y="143.27078"
       width="642.63208"
       height="130.75198"
       id="rect1" /><linearGradient
       inkscape:collect="always"
       xlink:href="#linearGradient20"
       id="linearGradient8"
       x1="104.67137"
       y1="66.079117"
       x2="104.67137"
       y2="83.621536"
       gradientUnits="userSpaceOnUse"
       gradientTransform="matrix(0.78365196,0,0,0.78365196,-2.6509242,-38.553583)" /><linearGradient
       inkscape:collect="always"
       xlink:href="#linearGradient7"
       id="linearGradient12"
       gradientUnits="userSpaceOnUse"
       x1="104.67137"
       y1="66.079117"
       x2="104.67137"
       y2="83.621536"
       gradientTransform="matrix(0.78365195,0,0,0.78365195,-2.6509237,-38.553581)" /><filter
       style="color-interpolation-filters:sRGB"
       id="filter76"
       inkscape:label="filter1" /><filter
       style="color-interpolation-filters:sRGB"
       inkscape:label="Drop Shadow"
       id="filter80"
       x="-0.01181416"
       y="-0.11368666"
       width="1.0311874"
       height="1.3001135"><feFlood
         result="flood"
         in="SourceGraphic"
         flood-opacity="0.498039"
         flood-color="rgb(0,0,0)"
         id="feFlood79" /><feGaussianBlur
         result="blur"
         in="SourceGraphic"
         stdDeviation="0.100000"
         id="feGaussianBlur79" /><feOffset
         result="offset"
         in="blur"
         dx="1.000000"
         dy="1.000000"
         id="feOffset79" /><feComposite
         result="comp1"
         operator="in"
         in="flood"
         in2="offset"
         id="feComposite79" /><feComposite
         result="comp2"
         operator="over"
         in="SourceGraphic"
         in2="comp1"
         id="feComposite80" /></filter><linearGradient
       inkscape:collect="always"
       xlink:href="#linearGradient7"
       id="linearGradient80"
       gradientUnits="userSpaceOnUse"
       gradientTransform="matrix(0.78365195,0,0,0.78365195,-2.6509237,-38.553581)"
       x1="104.67137"
       y1="66.079117"
       x2="104.67137"
       y2="83.621536" /><linearGradient
       inkscape:collect="always"
       xlink:href="#linearGradient20"
       id="linearGradient81"
       gradientUnits="userSpaceOnUse"
       gradientTransform="matrix(0.78365196,0,0,0.78365196,-2.6509242,-38.553583)"
       x1="104.67137"
       y1="66.079117"
       x2="104.67137"
       y2="83.621536" /><linearGradient
       inkscape:collect="always"
       xlink:href="#linearGradient7"
       id="linearGradient87"
       gradientUnits="userSpaceOnUse"
       gradientTransform="matrix(0.78365195,0,0,0.78365195,-2.6509237,-38.553581)"
       x1="104.67137"
       y1="66.079117"
       x2="104.67137"
       y2="83.621536" /><linearGradient
       inkscape:collect="always"
       xlink:href="#linearGradient20"
       id="linearGradient88"
       gradientUnits="userSpaceOnUse"
       gradientTransform="matrix(0.78365196,0,0,0.78365196,-2.6509242,-38.553583)"
       x1="104.67137"
       y1="66.079117"
       x2="104.67137"
       y2="83.621536" /><linearGradient
       inkscape:collect="always"
       xlink:href="#linearGradient7"
       id="linearGradient89"
       gradientUnits="userSpaceOnUse"
       gradientTransform="matrix(0.78365195,0,0,0.78365195,-2.6509237,-38.553581)"
       x1="104.67137"
       y1="66.079117"
       x2="104.67137"
       y2="83.621536" /><linearGradient
       inkscape:collect="always"
       xlink:href="#linearGradient20"
       id="linearGradient90"
       gradientUnits="userSpaceOnUse"
       gradientTransform="matrix(0.78365196,0,0,0.78365196,-2.6509242,-38.553583)"
       x1="104.67137"
       y1="66.079117"
       x2="104.67137"
       y2="83.621536" /></defs><g
     inkscape:label="Layer 1"
     inkscape:groupmode="layer"
     id="layer1"><g
       id="g29"
       inkscape:label="text"
       style="filter:url(#filter74)"
       inkscape:export-filename="AssemblyLogo.png"
       inkscape:export-xdpi="213.16592"
       inkscape:export-ydpi="213.16592"
       transform="matrix(0.96975578,0,0,0.96975578,-11.313416,-11.313416)"><g
         id="g28"
         style="fill:none;fill-opacity:1;stroke:#ffffff;stroke-width:2.64583;stroke-linejoin:round;stroke-dasharray:none;stroke-opacity:1;filter:url(#filter80)"
         inkscape:label="white-outline"><path
           d="m 23.031165,15.175413 h -3.927876 v 9.837384 h -1.946245 v -1.981632 h -1.963938 v -7.855752 h -1.963939 v -1.946246 h 9.801998 z m 10.598205,9.837384 h -1.946244 v -1.981632 h -1.963939 v -1.963938 h -1.981631 v 3.94557 H 25.79131 v -1.981632 h -1.963937 v -9.801998 h 1.946244 v 1.963939 h 1.963939 v 3.927875 h 1.981631 v -5.891814 h 1.946245 v 1.963939 h 1.963938 z m 11.217463,-9.837384 h -5.891814 v 1.981631 h 3.927875 v 1.946245 h -3.927875 v 3.963262 H 40.93665 V 21.08492 h 1.946244 v 3.927877 h -5.87412 v -1.981632 h -1.963939 v -7.838059 h 1.963939 v -1.963939 h 7.838059 z m 21.939519,9.837384 h -1.946245 v -1.981632 h -1.963939 v -1.963938 h -1.981631 v 5.909507 h -1.946246 v -1.963937 h -1.963937 v -9.819691 h 1.963937 v -1.963939 h 5.874122 v 1.963939 h 1.963939 z M 62.858474,17.13935 V 15.193106 H 60.91223 v 1.946244 z m 15.039175,5.891815 h -1.963941 v 1.981632 h -3.910183 v -1.946246 h 1.963937 v -1.999324 h -5.891815 v -5.874121 h 1.963939 v -1.963939 h 5.874122 v 1.946246 h -3.927877 v 1.981631 h 5.891818 z m 10.934361,0 h -1.963934 v 1.981632 h -3.910191 v -1.946246 h 1.963945 v -1.999324 h -5.89182 v -5.874121 h 1.963941 v -1.963939 h 5.874125 v 1.946246 h -3.927885 v 1.981631 h 5.891819 z m 10.934358,-7.855752 h -5.891816 v 1.981631 h 3.927882 v 1.946245 h -3.927882 v 3.963262 h 1.981635 V 21.08492 h 1.946247 v 3.927877 h -5.874121 v -1.981632 h -1.963942 v -7.838059 h 1.963942 v -1.963939 h 7.838055 z m 16.613882,9.837384 h -1.96395 v 1.963937 h -1.94624 V 17.13935 h -1.98163 v 5.891815 h -1.94625 v -1.963938 h -1.96394 v -1.963938 h -1.98163 v 3.927876 h -1.96393 v 1.981632 h -1.94625 v -9.819691 h 1.96393 v -1.963939 h 1.94625 v 1.963939 h 1.96394 v 1.963938 h 1.98163 v -1.963938 h 1.96394 v -1.963939 h 3.91018 v 1.963939 h 1.96395 z m 11.12898,-1.981632 h -1.96394 v 1.981632 h -1.96393 v 1.963937 h -3.91019 v -1.963937 h -1.96394 v -9.819691 h 1.96394 v -1.963939 h 5.87412 v 1.963939 h 1.96394 v 1.946244 h -1.96394 v 1.981631 h 1.96394 z m -3.92787,-5.891815 v -1.946244 h -1.94625 v 1.946244 z m 0,5.891815 V 21.08492 h -1.94625 v 1.946245 z m 11.04051,1.981632 h -3.91018 v -1.981632 h -1.96394 v -7.838059 h 1.96394 v -1.963939 h 1.94624 v 9.837384 h 1.96394 z m 10.89897,0 h -1.96394 v 1.963937 h -3.91018 v -1.963937 h -1.96395 v -1.946246 h 3.92788 v -1.999324 h -3.92788 v -1.963938 h -1.96393 v -3.910183 h 1.96393 v -1.963939 h 1.94625 v 3.927877 h 1.96394 v 1.963937 h 1.98163 v -3.927875 h 1.94625 z"
           id="path27"
           style="font-size:22.5778px;font-family:'Oxygene 1';-inkscape-font-specification:'Oxygene 1, Normal';fill:none;fill-opacity:1;stroke:#ffffff;stroke-width:2.64583;stroke-linejoin:round;stroke-dasharray:none;stroke-opacity:1"
           aria-label="THE ASSEMBLY"
           inkscape:label="gradient" /><path
           id="path28"
           style="font-size:22.5778px;font-family:'Oxygene 1';-inkscape-font-specification:'Oxygene 1, Normal';fill:none;fill-opacity:1;stroke:#ffffff;stroke-width:2.64583;stroke-linejoin:round;stroke-dasharray:none;stroke-opacity:1"
           inkscape:label="bottom-dark"
           d="m 13.229167,13.852384 v 1.322917 h 1.963704 v -1.322917 z m 5.87406,0 v 1.322917 h 3.927925 v -1.322917 z m 19.852018,0 v 1.322917 h 5.89163 v -1.322917 z m 33.050696,0 v 1.322917 h 3.927925 v -1.322917 z m 10.934216,0 v 1.322917 h 3.927926 v -1.322917 z m 10.934216,0 v 1.322917 h 5.892147 v -1.322917 z m -32.962329,0.01757 v 1.322917 h 1.946651 v -1.322917 z m 60.722906,0 v 1.322917 h 1.94665 v -1.322917 z m -11.1466,1.946652 v 1.322916 h 1.98179 v -1.322916 z m 15.05696,0 v 1.322916 h 1.9637 V 15.816606 Z M 38.955245,17.78031 v 1.322917 h 3.927409 V 17.78031 Z m 54.919128,0 v 1.322917 h 3.927926 V 17.78031 Z m 10.722347,0 v 1.322917 h 1.98127 V 17.78031 Z m 31.12213,0 v 1.322917 h 1.9637 V 17.78031 Z M 27.737325,19.744531 v 1.322917 h 1.981791 v -1.322917 z m 33.157149,0 v 1.322917 h 1.981791 v -1.322917 z m 7.201111,0 v 1.322917 h 5.89163 v -1.322917 z m 10.934216,0 v 1.322917 h 5.892147 v -1.322917 z m 27.548189,0 v 1.322917 h 1.96422 v -1.322917 z m 31.10456,0 v 1.322917 h 3.92793 v -1.322917 z m -16.0476,0.01757 v 1.322917 h 1.94665 V 19.762101 Z M 15.192871,21.708236 v 1.322916 h 1.964221 v -1.322916 z m 8.634615,0 v 1.322916 h 1.963705 v -1.322916 z m 5.89163,0 v 1.322916 h 1.964221 v -1.322916 z m 5.325773,0 v 1.322916 h 1.963705 v -1.322916 z m 27.831376,0 v 1.322916 h 1.963705 v -1.322916 z m 13.057601,0 v 1.322916 h 1.963705 v -1.322916 z m 10.934217,0 v 1.322916 h 1.963704 v -1.322916 z m 3.096452,0 v 1.322916 h 1.963704 v -1.322916 z m 12.667965,0 v 1.322916 h 1.96422 v -1.322916 z m 5.90971,0 v 1.322916 h 1.94614 v -1.322916 z m 17.0031,0 v 1.322916 h 1.9637 v -1.322916 z m 3.20239,0 v 1.322916 h 1.96422 V 21.708236 Z M 17.157092,23.690027 v 1.322917 h 1.946135 v -1.322917 z m 8.634099,0 v 1.322917 h 1.946134 v -1.322917 z m 5.892146,0 v 1.322917 h 1.946135 v -1.322917 z m 5.325257,0 v 1.322917 h 5.87406 v -1.322917 z m 19.975525,0 v 1.322917 h 1.964221 v -1.322917 z m 7.855851,0 v 1.322917 h 1.946134 v -1.322917 z m 7.183541,0 v 1.322917 h 3.910355 v -1.322917 z m 10.934216,0 v 1.322917 h 3.910356 v -1.322917 z m 8.970512,0 v 1.322917 h 5.87406 v -1.322917 z m 8.758121,0 v 1.322917 h 1.94614 v -1.322917 z m 13.72991,0 v 1.322917 h 1.96422 v -1.322917 z m 3.29076,0 v 1.322917 h 1.96422 v -1.322917 z m 5.87457,0 v 1.322917 h 1.96371 v -1.322917 z m 7.13032,0 v 1.322917 h 3.90984 v -1.322917 z m 6.97063,0 v 1.322917 h 1.96422 v -1.322917 z m 5.87458,0 v 1.322917 h 1.9637 v -1.322917 z m -84.60879,1.963704 v 1.322917 h 1.946134 v -1.322917 z m 53.5218,0 v 1.322917 h 1.94613 v -1.322917 z m 7.20111,0 v 1.322917 h 3.91035 v -1.322917 z m 19.97552,0 v 1.322917 h 3.91036 v -1.322917 z" /></g><g
         id="g24"
         style="stroke:#000000;stroke-width:1.05833;stroke-linejoin:round;stroke-dasharray:none;stroke-opacity:1"
         inkscape:label="black-outline"><path
           d="m 23.031165,15.175413 h -3.927876 v 9.837384 h -1.946245 v -1.981632 h -1.963938 v -7.855752 h -1.963939 v -1.946246 h 9.801998 z m 10.598205,9.837384 h -1.946244 v -1.981632 h -1.963939 v -1.963938 h -1.981631 v 3.94557 H 25.79131 v -1.981632 h -1.963937 v -9.801998 h 1.946244 v 1.963939 h 1.963939 v 3.927875 h 1.981631 v -5.891814 h 1.946245 v 1.963939 h 1.963938 z m 11.217463,-9.837384 h -5.891814 v 1.981631 h 3.927875 v 1.946245 h -3.927875 v 3.963262 H 40.93665 V 21.08492 h 1.946244 v 3.927877 h -5.87412 v -1.981632 h -1.963939 v -7.838059 h 1.963939 v -1.963939 h 7.838059 z m 21.939519,9.837384 h -1.946245 v -1.981632 h -1.963939 v -1.963938 h -1.981631 v 5.909507 h -1.946246 v -1.963937 h -1.963937 v -9.819691 h 1.963937 v -1.963939 h 5.874122 v 1.963939 h 1.963939 z M 62.858474,17.13935 V 15.193106 H 60.91223 v 1.946244 z m 15.039175,5.891815 h -1.963941 v 1.981632 h -3.910183 v -1.946246 h 1.963937 v -1.999324 h -5.891815 v -5.874121 h 1.963939 v -1.963939 h 5.874122 v 1.946246 h -3.927877 v 1.981631 h 5.891818 z m 10.934361,0 h -1.963934 v 1.981632 h -3.910191 v -1.946246 h 1.963945 v -1.999324 h -5.89182 v -5.874121 h 1.963941 v -1.963939 h 5.874125 v 1.946246 h -3.927885 v 1.981631 h 5.891819 z m 10.934358,-7.855752 h -5.891816 v 1.981631 h 3.927882 v 1.946245 h -3.927882 v 3.963262 h 1.981635 V 21.08492 h 1.946247 v 3.927877 h -5.874121 v -1.981632 h -1.963942 v -7.838059 h 1.963942 v -1.963939 h 7.838055 z m 16.613882,9.837384 h -1.96395 v 1.963937 h -1.94624 V 17.13935 h -1.98163 v 5.891815 h -1.94625 v -1.963938 h -1.96394 v -1.963938 h -1.98163 v 3.927876 h -1.96393 v 1.981632 h -1.94625 v -9.819691 h 1.96393 v -1.963939 h 1.94625 v 1.963939 h 1.96394 v 1.963938 h 1.98163 v -1.963938 h 1.96394 v -1.963939 h 3.91018 v 1.963939 h 1.96395 z m 11.12898,-1.981632 h -1.96394 v 1.981632 h -1.96393 v 1.963937 h -3.91019 v -1.963937 h -1.96394 v -9.819691 h 1.96394 v -1.963939 h 5.87412 v 1.963939 h 1.96394 v 1.946244 h -1.96394 v 1.981631 h 1.96394 z m -3.92787,-5.891815 v -1.946244 h -1.94625 v 1.946244 z m 0,5.891815 V 21.08492 h -1.94625 v 1.946245 z m 11.04051,1.981632 h -3.91018 v -1.981632 h -1.96394 v -7.838059 h 1.96394 v -1.963939 h 1.94624 v 9.837384 h 1.96394 z m 10.89897,0 h -1.96394 v 1.963937 h -3.91018 v -1.963937 h -1.96395 v -1.946246 h 3.92788 v -1.999324 h -3.92788 v -1.963938 h -1.96393 v -3.910183 h 1.96393 v -1.963939 h 1.94625 v 3.927877 h 1.96394 v 1.963937 h 1.98163 v -3.927875 h 1.94625 z"
           id="text7"
           style="font-size:22.5778px;font-family:'Oxygene 1';-inkscape-font-specification:'Oxygene 1, Normal';fill:url(#linearGradient87);stroke:#000000;stroke-width:1.32292;stroke-linejoin:round;stroke-dasharray:none;stroke-opacity:1"
           aria-label="THE ASSEMBLY"
           inkscape:label="gradient" /><path
           id="path10"
           style="font-size:22.5778px;font-family:'Oxygene 1';-inkscape-font-specification:'Oxygene 1, Normal';fill:url(#linearGradient88);stroke:#000000;stroke-width:1.05833;stroke-linejoin:round;stroke-dasharray:none;stroke-opacity:1"
           inkscape:label="bottom-dark"
           d="m 13.229167,13.852384 v 1.322917 h 1.963704 v -1.322917 z m 5.87406,0 v 1.322917 h 3.927925 v -1.322917 z m 19.852018,0 v 1.322917 h 5.89163 v -1.322917 z m 33.050696,0 v 1.322917 h 3.927925 v -1.322917 z m 10.934216,0 v 1.322917 h 3.927926 v -1.322917 z m 10.934216,0 v 1.322917 h 5.892147 v -1.322917 z m -32.962329,0.01757 v 1.322917 h 1.946651 v -1.322917 z m 60.722906,0 v 1.322917 h 1.94665 v -1.322917 z m -11.1466,1.946652 v 1.322916 h 1.98179 v -1.322916 z m 15.05696,0 v 1.322916 h 1.9637 V 15.816606 Z M 38.955245,17.78031 v 1.322917 h 3.927409 V 17.78031 Z m 54.919128,0 v 1.322917 h 3.927926 V 17.78031 Z m 10.722347,0 v 1.322917 h 1.98127 V 17.78031 Z m 31.12213,0 v 1.322917 h 1.9637 V 17.78031 Z M 27.737325,19.744531 v 1.322917 h 1.981791 v -1.322917 z m 33.157149,0 v 1.322917 h 1.981791 v -1.322917 z m 7.201111,0 v 1.322917 h 5.89163 v -1.322917 z m 10.934216,0 v 1.322917 h 5.892147 v -1.322917 z m 27.548189,0 v 1.322917 h 1.96422 v -1.322917 z m 31.10456,0 v 1.322917 h 3.92793 v -1.322917 z m -16.0476,0.01757 v 1.322917 h 1.94665 V 19.762101 Z M 15.192871,21.708236 v 1.322916 h 1.964221 v -1.322916 z m 8.634615,0 v 1.322916 h 1.963705 v -1.322916 z m 5.89163,0 v 1.322916 h 1.964221 v -1.322916 z m 5.325773,0 v 1.322916 h 1.963705 v -1.322916 z m 27.831376,0 v 1.322916 h 1.963705 v -1.322916 z m 13.057601,0 v 1.322916 h 1.963705 v -1.322916 z m 10.934217,0 v 1.322916 h 1.963704 v -1.322916 z m 3.096452,0 v 1.322916 h 1.963704 v -1.322916 z m 12.667965,0 v 1.322916 h 1.96422 v -1.322916 z m 5.90971,0 v 1.322916 h 1.94614 v -1.322916 z m 17.0031,0 v 1.322916 h 1.9637 v -1.322916 z m 3.20239,0 v 1.322916 h 1.96422 V 21.708236 Z M 17.157092,23.690027 v 1.322917 h 1.946135 v -1.322917 z m 8.634099,0 v 1.322917 h 1.946134 v -1.322917 z m 5.892146,0 v 1.322917 h 1.946135 v -1.322917 z m 5.325257,0 v 1.322917 h 5.87406 v -1.322917 z m 19.975525,0 v 1.322917 h 1.964221 v -1.322917 z m 7.855851,0 v 1.322917 h 1.946134 v -1.322917 z m 7.183541,0 v 1.322917 h 3.910355 v -1.322917 z m 10.934216,0 v 1.322917 h 3.910356 v -1.322917 z m 8.970512,0 v 1.322917 h 5.87406 v -1.322917 z m 8.758121,0 v 1.322917 h 1.94614 v -1.322917 z m 13.72991,0 v 1.322917 h 1.96422 v -1.322917 z m 3.29076,0 v 1.322917 h 1.96422 v -1.322917 z m 5.87457,0 v 1.322917 h 1.96371 v -1.322917 z m 7.13032,0 v 1.322917 h 3.90984 v -1.322917 z m 6.97063,0 v 1.322917 h 1.96422 v -1.322917 z m 5.87458,0 v 1.322917 h 1.9637 v -1.322917 z m -84.60879,1.963704 v 1.322917 h 1.946134 v -1.322917 z m 53.5218,0 v 1.322917 h 1.94613 v -1.322917 z m 7.20111,0 v 1.322917 h 3.91035 v -1.322917 z m 19.97552,0 v 1.322917 h 3.91036 v -1.322917 z" /></g><g
         id="g25"
         inkscape:label="base"><path
           d="m 23.031165,15.175413 h -3.927876 v 9.837384 h -1.946245 v -1.981632 h -1.963938 v -7.855752 h -1.963939 v -1.946246 h 9.801998 z m 10.598205,9.837384 h -1.946244 v -1.981632 h -1.963939 v -1.963938 h -1.981631 v 3.94557 H 25.79131 v -1.981632 h -1.963937 v -9.801998 h 1.946244 v 1.963939 h 1.963939 v 3.927875 h 1.981631 v -5.891814 h 1.946245 v 1.963939 h 1.963938 z m 11.217463,-9.837384 h -5.891814 v 1.981631 h 3.927875 v 1.946245 h -3.927875 v 3.963262 H 40.93665 V 21.08492 h 1.946244 v 3.927877 h -5.87412 v -1.981632 h -1.963939 v -7.838059 h 1.963939 v -1.963939 h 7.838059 z m 21.939519,9.837384 h -1.946245 v -1.981632 h -1.963939 v -1.963938 h -1.981631 v 5.909507 h -1.946246 v -1.963937 h -1.963937 v -9.819691 h 1.963937 v -1.963939 h 5.874122 v 1.963939 h 1.963939 z M 62.858474,17.13935 V 15.193106 H 60.91223 v 1.946244 z m 15.039175,5.891815 h -1.963941 v 1.981632 h -3.910183 v -1.946246 h 1.963937 v -1.999324 h -5.891815 v -5.874121 h 1.963939 v -1.963939 h 5.874122 v 1.946246 h -3.927877 v 1.981631 h 5.891818 z m 10.934361,0 h -1.963934 v 1.981632 h -3.910191 v -1.946246 h 1.963945 v -1.999324 h -5.89182 v -5.874121 h 1.963941 v -1.963939 h 5.874125 v 1.946246 h -3.927885 v 1.981631 h 5.891819 z m 10.934358,-7.855752 h -5.891816 v 1.981631 h 3.927882 v 1.946245 h -3.927882 v 3.963262 h 1.981635 V 21.08492 h 1.946247 v 3.927877 h -5.874121 v -1.981632 h -1.963942 v -7.838059 h 1.963942 v -1.963939 h 7.838055 z m 16.613882,9.837384 h -1.96395 v 1.963937 h -1.94624 V 17.13935 h -1.98163 v 5.891815 h -1.94625 v -1.963938 h -1.96394 v -1.963938 h -1.98163 v 3.927876 h -1.96393 v 1.981632 h -1.94625 v -9.819691 h 1.96393 v -1.963939 h 1.94625 v 1.963939 h 1.96394 v 1.963938 h 1.98163 v -1.963938 h 1.96394 v -1.963939 h 3.91018 v 1.963939 h 1.96395 z m 11.12898,-1.981632 h -1.96394 v 1.981632 h -1.96393 v 1.963937 h -3.91019 v -1.963937 h -1.96394 v -9.819691 h 1.96394 v -1.963939 h 5.87412 v 1.963939 h 1.96394 v 1.946244 h -1.96394 v 1.981631 h 1.96394 z m -3.92787,-5.891815 v -1.946244 h -1.94625 v 1.946244 z m 0,5.891815 V 21.08492 h -1.94625 v 1.946245 z m 11.04051,1.981632 h -3.91018 v -1.981632 h -1.96394 v -7.838059 h 1.96394 v -1.963939 h 1.94624 v 9.837384 h 1.96394 z m 10.89897,0 h -1.96394 v 1.963937 h -3.91018 v -1.963937 h -1.96395 v -1.946246 h 3.92788 v -1.999324 h -3.92788 v -1.963938 h -1.96393 v -3.910183 h 1.96393 v -1.963939 h 1.94625 v 3.927877 h 1.96394 v 1.963937 h 1.98163 v -3.927875 h 1.94625 z"
           id="path24"
           style="font-size:22.5778px;font-family:'Oxygene 1';-inkscape-font-specification:'Oxygene 1, Normal';fill:url(#linearGradient89);stroke-width:0.207341"
           aria-label="THE ASSEMBLY"
           inkscape:label="gradient" /><path
           id="path25"
           style="font-size:22.5778px;font-family:'Oxygene 1';-inkscape-font-specification:'Oxygene 1, Normal';fill:url(#linearGradient90);stroke-width:0.207341"
           inkscape:label="bottom-dark"
           d="m 13.229167,13.852384 v 1.322917 h 1.963704 v -1.322917 z m 5.87406,0 v 1.322917 h 3.927925 v -1.322917 z m 19.852018,0 v 1.322917 h 5.89163 v -1.322917 z m 33.050696,0 v 1.322917 h 3.927925 v -1.322917 z m 10.934216,0 v 1.322917 h 3.927926 v -1.322917 z m 10.934216,0 v 1.322917 h 5.892147 v -1.322917 z m -32.962329,0.01757 v 1.322917 h 1.946651 v -1.322917 z m 60.722906,0 v 1.322917 h 1.94665 v -1.322917 z m -11.1466,1.946652 v 1.322916 h 1.98179 v -1.322916 z m 15.05696,0 v 1.322916 h 1.9637 V 15.816606 Z M 38.955245,17.78031 v 1.322917 h 3.927409 V 17.78031 Z m 54.919128,0 v 1.322917 h 3.927926 V 17.78031 Z m 10.722347,0 v 1.322917 h 1.98127 V 17.78031 Z m 31.12213,0 v 1.322917 h 1.9637 V 17.78031 Z M 27.737325,19.744531 v 1.322917 h 1.981791 v -1.322917 z m 33.157149,0 v 1.322917 h 1.981791 v -1.322917 z m 7.201111,0 v 1.322917 h 5.89163 v -1.322917 z m 10.934216,0 v 1.322917 h 5.892147 v -1.322917 z m 27.548189,0 v 1.322917 h 1.96422 v -1.322917 z m 31.10456,0 v 1.322917 h 3.92793 v -1.322917 z m -16.0476,0.01757 v 1.322917 h 1.94665 V 19.762101 Z M 15.192871,21.708236 v 1.322916 h 1.964221 v -1.322916 z m 8.634615,0 v 1.322916 h 1.963705 v -1.322916 z m 5.89163,0 v 1.322916 h 1.964221 v -1.322916 z m 5.325773,0 v 1.322916 h 1.963705 v -1.322916 z m 27.831376,0 v 1.322916 h 1.963705 v -1.322916 z m 13.057601,0 v 1.322916 h 1.963705 v -1.322916 z m 10.934217,0 v 1.322916 h 1.963704 v -1.322916 z m 3.096452,0 v 1.322916 h 1.963704 v -1.322916 z m 12.667965,0 v 1.322916 h 1.96422 v -1.322916 z m 5.90971,0 v 1.322916 h 1.94614 v -1.322916 z m 17.0031,0 v 1.322916 h 1.9637 v -1.322916 z m 3.20239,0 v 1.322916 h 1.96422 V 21.708236 Z M 17.157092,23.690027 v 1.322917 h 1.946135 v -1.322917 z m 8.634099,0 v 1.322917 h 1.946134 v -1.322917 z m 5.892146,0 v 1.322917 h 1.946135 v -1.322917 z m 5.325257,0 v 1.322917 h 5.87406 v -1.322917 z m 19.975525,0 v 1.322917 h 1.964221 v -1.322917 z m 7.855851,0 v 1.322917 h 1.946134 v -1.322917 z m 7.183541,0 v 1.322917 h 3.910355 v -1.322917 z m 10.934216,0 v 1.322917 h 3.910356 v -1.322917 z m 8.970512,0 v 1.322917 h 5.87406 v -1.322917 z m 8.758121,0 v 1.322917 h 1.94614 v -1.322917 z m 13.72991,0 v 1.322917 h 1.96422 v -1.322917 z m 3.29076,0 v 1.322917 h 1.96422 v -1.322917 z m 5.87457,0 v 1.322917 h 1.96371 v -1.322917 z m 7.13032,0 v 1.322917 h 3.90984 v -1.322917 z m 6.97063,0 v 1.322917 h 1.96422 v -1.322917 z m 5.87458,0 v 1.322917 h 1.9637 v -1.322917 z m -84.60879,1.963704 v 1.322917 h 1.946134 v -1.322917 z m 53.5218,0 v 1.322917 h 1.94613 v -1.322917 z m 7.20111,0 v 1.322917 h 3.91035 v -1.322917 z m 19.97552,0 v 1.322917 h 3.91036 v -1.322917 z" /></g></g><g
       id="g87"
       inkscape:label="text"
       style="filter:url(#filter74)"
       inkscape:export-filename="AssemblyLogo.png"
       inkscape:export-xdpi="213.16592"
       inkscape:export-ydpi="213.16592"
       transform="matrix(0.96975578,0,0,0.96975578,-11.313416,-11.313416)"><g
         id="g82"
         style="fill:none;fill-opacity:1;stroke:#ffffff;stroke-width:2.64583;stroke-linejoin:round;stroke-dasharray:none;stroke-opacity:1;filter:url(#filter80)"
         inkscape:label="white-outline"><path
           d="m 23.031165,15.175413 h -3.927876 v 9.837384 h -1.946245 v -1.981632 h -1.963938 v -7.855752 h -1.963939 v -1.946246 h 9.801998 z m 10.598205,9.837384 h -1.946244 v -1.981632 h -1.963939 v -1.963938 h -1.981631 v 3.94557 H 25.79131 v -1.981632 h -1.963937 v -9.801998 h 1.946244 v 1.963939 h 1.963939 v 3.927875 h 1.981631 v -5.891814 h 1.946245 v 1.963939 h 1.963938 z m 11.217463,-9.837384 h -5.891814 v 1.981631 h 3.927875 v 1.946245 h -3.927875 v 3.963262 H 40.93665 V 21.08492 h 1.946244 v 3.927877 h -5.87412 v -1.981632 h -1.963939 v -7.838059 h 1.963939 v -1.963939 h 7.838059 z m 21.939519,9.837384 h -1.946245 v -1.981632 h -1.963939 v -1.963938 h -1.981631 v 5.909507 h -1.946246 v -1.963937 h -1.963937 v -9.819691 h 1.963937 v -1.963939 h 5.874122 v 1.963939 h 1.963939 z M 62.858474,17.13935 V 15.193106 H 60.91223 v 1.946244 z m 15.039175,5.891815 h -1.963941 v 1.981632 h -3.910183 v -1.946246 h 1.963937 v -1.999324 h -5.891815 v -5.874121 h 1.963939 v -1.963939 h 5.874122 v 1.946246 h -3.927877 v 1.981631 h 5.891818 z m 10.934361,0 h -1.963934 v 1.981632 h -3.910191 v -1.946246 h 1.963945 v -1.999324 h -5.89182 v -5.874121 h 1.963941 v -1.963939 h 5.874125 v 1.946246 h -3.927885 v 1.981631 h 5.891819 z m 10.934358,-7.855752 h -5.891816 v 1.981631 h 3.927882 v 1.946245 h -3.927882 v 3.963262 h 1.981635 V 21.08492 h 1.946247 v 3.927877 h -5.874121 v -1.981632 h -1.963942 v -7.838059 h 1.963942 v -1.963939 h 7.838055 z m 16.613882,9.837384 h -1.96395 v 1.963937 h -1.94624 V 17.13935 h -1.98163 v 5.891815 h -1.94625 v -1.963938 h -1.96394 v -1.963938 h -1.98163 v 3.927876 h -1.96393 v 1.981632 h -1.94625 v -9.819691 h 1.96393 v -1.963939 h 1.94625 v 1.963939 h 1.96394 v 1.963938 h 1.98163 v -1.963938 h 1.96394 v -1.963939 h 3.91018 v 1.963939 h 1.96395 z m 11.12898,-1.981632 h -1.96394 v 1.981632 h -1.96393 v 1.963937 h -3.91019 v -1.963937 h -1.96394 v -9.819691 h 1.96394 v -1.963939 h 5.87412 v 1.963939 h 1.96394 v 1.946244 h -1.96394 v 1.981631 h 1.96394 z m -3.92787,-5.891815 v -1.946244 h -1.94625 v 1.946244 z m 0,5.891815 V 21.08492 h -1.94625 v 1.946245 z m 11.04051,1.981632 h -3.91018 v -1.981632 h -1.96394 v -7.838059 h 1.96394 v -1.963939 h 1.94624 v 9.837384 h 1.96394 z m 10.89897,0 h -1.96394 v 1.963937 h -3.91018 v -1.963937 h -1.96395 v -1.946246 h 3.92788 v -1.999324 h -3.92788 v -1.963938 h -1.96393 v -3.910183 h 1.96393 v -1.963939 h 1.94625 v 3.927877 h 1.96394 v 1.963937 h 1.98163 v -3.927875 h 1.94625 z"
           id="path81"
           style="font-size:22.5778px;font-family:'Oxygene 1';-inkscape-font-specification:'Oxygene 1, Normal';fill:none;fill-opacity:1;stroke:#ffffff;stroke-width:2.64583;stroke-linejoin:round;stroke-dasharray:none;stroke-opacity:1"
           aria-label="THE ASSEMBLY"
           inkscape:label="gradient" /><path
           id="path82"
           style="font-size:22.5778px;font-family:'Oxygene 1';-inkscape-font-specification:'Oxygene 1, Normal';fill:none;fill-opacity:1;stroke:#ffffff;stroke-width:2.64583;stroke-linejoin:round;stroke-dasharray:none;stroke-opacity:1"
           inkscape:label="bottom-dark"
           d="m 13.229167,13.852384 v 1.322917 h 1.963704 v -1.322917 z m 5.87406,0 v 1.322917 h 3.927925 v -1.322917 z m 19.852018,0 v 1.322917 h 5.89163 v -1.322917 z m 33.050696,0 v 1.322917 h 3.927925 v -1.322917 z m 10.934216,0 v 1.322917 h 3.927926 v -1.322917 z m 10.934216,0 v 1.322917 h 5.892147 v -1.322917 z m -32.962329,0.01757 v 1.322917 h 1.946651 v -1.322917 z m 60.722906,0 v 1.322917 h 1.94665 v -1.322917 z m -11.1466,1.946652 v 1.322916 h 1.98179 v -1.322916 z m 15.05696,0 v 1.322916 h 1.9637 V 15.816606 Z M 38.955245,17.78031 v 1.322917 h 3.927409 V 17.78031 Z m 54.919128,0 v 1.322917 h 3.927926 V 17.78031 Z m 10.722347,0 v 1.322917 h 1.98127 V 17.78031 Z m 31.12213,0 v 1.322917 h 1.9637 V 17.78031 Z M 27.737325,19.744531 v 1.322917 h 1.981791 v -1.322917 z m 33.157149,0 v 1.322917 h 1.981791 v -1.322917 z m 7.201111,0 v 1.322917 h 5.89163 v -1.322917 z m 10.934216,0 v 1.322917 h 5.892147 v -1.322917 z m 27.548189,0 v 1.322917 h 1.96422 v -1.322917 z m 31.10456,0 v 1.322917 h 3.92793 v -1.322917 z m -16.0476,0.01757 v 1.322917 h 1.94665 V 19.762101 Z M 15.192871,21.708236 v 1.322916 h 1.964221 v -1.322916 z m 8.634615,0 v 1.322916 h 1.963705 v -1.322916 z m 5.89163,0 v 1.322916 h 1.964221 v -1.322916 z m 5.325773,0 v 1.322916 h 1.963705 v -1.322916 z m 27.831376,0 v 1.322916 h 1.963705 v -1.322916 z m 13.057601,0 v 1.322916 h 1.963705 v -1.322916 z m 10.934217,0 v 1.322916 h 1.963704 v -1.322916 z m 3.096452,0 v 1.322916 h 1.963704 v -1.322916 z m 12.667965,0 v 1.322916 h 1.96422 v -1.322916 z m 5.90971,0 v 1.322916 h 1.94614 v -1.322916 z m 17.0031,0 v 1.322916 h 1.9637 v -1.322916 z m 3.20239,0 v 1.322916 h 1.96422 V 21.708236 Z M 17.157092,23.690027 v 1.322917 h 1.946135 v -1.322917 z m 8.634099,0 v 1.322917 h 1.946134 v -1.322917 z m 5.892146,0 v 1.322917 h 1.946135 v -1.322917 z m 5.325257,0 v 1.322917 h 5.87406 v -1.322917 z m 19.975525,0 v 1.322917 h 1.964221 v -1.322917 z m 7.855851,0 v 1.322917 h 1.946134 v -1.322917 z m 7.183541,0 v 1.322917 h 3.910355 v -1.322917 z m 10.934216,0 v 1.322917 h 3.910356 v -1.322917 z m 8.970512,0 v 1.322917 h 5.87406 v -1.322917 z m 8.758121,0 v 1.322917 h 1.94614 v -1.322917 z m 13.72991,0 v 1.322917 h 1.96422 v -1.322917 z m 3.29076,0 v 1.322917 h 1.96422 v -1.322917 z m 5.87457,0 v 1.322917 h 1.96371 v -1.322917 z m 7.13032,0 v 1.322917 h 3.90984 v -1.322917 z m 6.97063,0 v 1.322917 h 1.96422 v -1.322917 z m 5.87458,0 v 1.322917 h 1.9637 v -1.322917 z m -84.60879,1.963704 v 1.322917 h 1.946134 v -1.322917 z m 53.5218,0 v 1.322917 h 1.94613 v -1.322917 z m 7.20111,0 v 1.322917 h 3.91035 v -1.322917 z m 19.97552,0 v 1.322917 h 3.91036 v -1.322917 z" /></g><g
         id="g84"
         style="stroke:#000000;stroke-width:1.05833;stroke-linejoin:round;stroke-dasharray:none;stroke-opacity:1"
         inkscape:label="black-outline"><path
           d="m 23.031165,15.175413 h -3.927876 v 9.837384 h -1.946245 v -1.981632 h -1.963938 v -7.855752 h -1.963939 v -1.946246 h 9.801998 z m 10.598205,9.837384 h -1.946244 v -1.981632 h -1.963939 v -1.963938 h -1.981631 v 3.94557 H 25.79131 v -1.981632 h -1.963937 v -9.801998 h 1.946244 v 1.963939 h 1.963939 v 3.927875 h 1.981631 v -5.891814 h 1.946245 v 1.963939 h 1.963938 z m 11.217463,-9.837384 h -5.891814 v 1.981631 h 3.927875 v 1.946245 h -3.927875 v 3.963262 H 40.93665 V 21.08492 h 1.946244 v 3.927877 h -5.87412 v -1.981632 h -1.963939 v -7.838059 h 1.963939 v -1.963939 h 7.838059 z m 21.939519,9.837384 h -1.946245 v -1.981632 h -1.963939 v -1.963938 h -1.981631 v 5.909507 h -1.946246 v -1.963937 h -1.963937 v -9.819691 h 1.963937 v -1.963939 h 5.874122 v 1.963939 h 1.963939 z M 62.858474,17.13935 V 15.193106 H 60.91223 v 1.946244 z m 15.039175,5.891815 h -1.963941 v 1.981632 h -3.910183 v -1.946246 h 1.963937 v -1.999324 h -5.891815 v -5.874121 h 1.963939 v -1.963939 h 5.874122 v 1.946246 h -3.927877 v 1.981631 h 5.891818 z m 10.934361,0 h -1.963934 v 1.981632 h -3.910191 v -1.946246 h 1.963945 v -1.999324 h -5.89182 v -5.874121 h 1.963941 v -1.963939 h 5.874125 v 1.946246 h -3.927885 v 1.981631 h 5.891819 z m 10.934358,-7.855752 h -5.891816 v 1.981631 h 3.927882 v 1.946245 h -3.927882 v 3.963262 h 1.981635 V 21.08492 h 1.946247 v 3.927877 h -5.874121 v -1.981632 h -1.963942 v -7.838059 h 1.963942 v -1.963939 h 7.838055 z m 16.613882,9.837384 h -1.96395 v 1.963937 h -1.94624 V 17.13935 h -1.98163 v 5.891815 h -1.94625 v -1.963938 h -1.96394 v -1.963938 h -1.98163 v 3.927876 h -1.96393 v 1.981632 h -1.94625 v -9.819691 h 1.96393 v -1.963939 h 1.94625 v 1.963939 h 1.96394 v 1.963938 h 1.98163 v -1.963938 h 1.96394 v -1.963939 h 3.91018 v 1.963939 h 1.96395 z m 11.12898,-1.981632 h -1.96394 v 1.981632 h -1.96393 v 1.963937 h -3.91019 v -1.963937 h -1.96394 v -9.819691 h 1.96394 v -1.963939 h 5.87412 v 1.963939 h 1.96394 v 1.946244 h -1.96394 v 1.981631 h 1.96394 z m -3.92787,-5.891815 v -1.946244 h -1.94625 v 1.946244 z m 0,5.891815 V 21.08492 h -1.94625 v 1.946245 z m 11.04051,1.981632 h -3.91018 v -1.981632 h -1.96394 v -7.838059 h 1.96394 v -1.963939 h 1.94624 v 9.837384 h 1.96394 z m 10.89897,0 h -1.96394 v 1.963937 h -3.91018 v -1.963937 h -1.96395 v -1.946246 h 3.92788 v -1.999324 h -3.92788 v -1.963938 h -1.96393 v -3.910183 h 1.96393 v -1.963939 h 1.94625 v 3.927877 h 1.96394 v 1.963937 h 1.98163 v -3.927875 h 1.94625 z"
           id="path83"
           style="font-size:22.5778px;font-family:'Oxygene 1';-inkscape-font-specification:'Oxygene 1, Normal';fill:url(#linearGradient80);stroke:#000000;stroke-width:1.32292;stroke-linejoin:round;stroke-dasharray:none;stroke-opacity:1"
           aria-label="THE ASSEMBLY"
           inkscape:label="gradient" /><path
           id="path84"
           style="font-size:22.5778px;font-family:'Oxygene 1';-inkscape-font-specification:'Oxygene 1, Normal';fill:url(#linearGradient81);stroke:#000000;stroke-width:1.05833;stroke-linejoin:round;stroke-dasharray:none;stroke-opacity:1"
           inkscape:label="bottom-dark"
           d="m 13.229167,13.852384 v 1.322917 h 1.963704 v -1.322917 z m 5.87406,0 v 1.322917 h 3.927925 v -1.322917 z m 19.852018,0 v 1.322917 h 5.89163 v -1.322917 z m 33.050696,0 v 1.322917 h 3.927925 v -1.322917 z m 10.934216,0 v 1.322917 h 3.927926 v -1.322917 z m 10.934216,0 v 1.322917 h 5.892147 v -1.322917 z m -32.962329,0.01757 v 1.322917 h 1.946651 v -1.322917 z m 60.722906,0 v 1.322917 h 1.94665 v -1.322917 z m -11.1466,1.946652 v 1.322916 h 1.98179 v -1.322916 z m 15.05696,0 v 1.322916 h 1.9637 V 15.816606 Z M 38.955245,17.78031 v 1.322917 h 3.927409 V 17.78031 Z m 54.919128,0 v 1.322917 h 3.927926 V 17.78031 Z m 10.722347,0 v 1.322917 h 1.98127 V 17.78031 Z m 31.12213,0 v 1.322917 h 1.9637 V 17.78031 Z M 27.737325,19.744531 v 1.322917 h 1.981791 v -1.322917 z m 33.157149,0 v 1.322917 h 1.981791 v -1.322917 z m 7.201111,0 v 1.322917 h 5.89163 v -1.322917 z m 10.934216,0 v 1.322917 h 5.892147 v -1.322917 z m 27.548189,0 v 1.322917 h 1.96422 v -1.322917 z m 31.10456,0 v 1.322917 h 3.92793 v -1.322917 z m -16.0476,0.01757 v 1.322917 h 1.94665 V 19.762101 Z M 15.192871,21.708236 v 1.322916 h 1.964221 v -1.322916 z m 8.634615,0 v 1.322916 h 1.963705 v -1.322916 z m 5.89163,0 v 1.322916 h 1.964221 v -1.322916 z m 5.325773,0 v 1.322916 h 1.963705 v -1.322916 z m 27.831376,0 v 1.322916 h 1.963705 v -1.322916 z m 13.057601,0 v 1.322916 h 1.963705 v -1.322916 z m 10.934217,0 v 1.322916 h 1.963704 v -1.322916 z m 3.096452,0 v 1.322916 h 1.963704 v -1.322916 z m 12.667965,0 v 1.322916 h 1.96422 v -1.322916 z m 5.90971,0 v 1.322916 h 1.94614 v -1.322916 z m 17.0031,0 v 1.322916 h 1.9637 v -1.322916 z m 3.20239,0 v 1.322916 h 1.96422 V 21.708236 Z M 17.157092,23.690027 v 1.322917 h 1.946135 v -1.322917 z m 8.634099,0 v 1.322917 h 1.946134 v -1.322917 z m 5.892146,0 v 1.322917 h 1.946135 v -1.322917 z m 5.325257,0 v 1.322917 h 5.87406 v -1.322917 z m 19.975525,0 v 1.322917 h 1.964221 v -1.322917 z m 7.855851,0 v 1.322917 h 1.946134 v -1.322917 z m 7.183541,0 v 1.322917 h 3.910355 v -1.322917 z m 10.934216,0 v 1.322917 h 3.910356 v -1.322917 z m 8.970512,0 v 1.322917 h 5.87406 v -1.322917 z m 8.758121,0 v 1.322917 h 1.94614 v -1.322917 z m 13.72991,0 v 1.322917 h 1.96422 v -1.322917 z m 3.29076,0 v 1.322917 h 1.96422 v -1.322917 z m 5.87457,0 v 1.322917 h 1.96371 v -1.322917 z m 7.13032,0 v 1.322917 h 3.90984 v -1.322917 z m 6.97063,0 v 1.322917 h 1.96422 v -1.322917 z m 5.87458,0 v 1.322917 h 1.9637 v -1.322917 z m -84.60879,1.963704 v 1.322917 h 1.946134 v -1.322917 z m 53.5218,0 v 1.322917 h 1.94613 v -1.322917 z m 7.20111,0 v 1.322917 h 3.91035 v -1.322917 z m 19.97552,0 v 1.322917 h 3.91036 v -1.322917 z" /></g><g
         id="g86"
         inkscape:label="base"><path
           d="m 23.031165,15.175413 h -3.927876 v 9.837384 h -1.946245 v -1.981632 h -1.963938 v -7.855752 h -1.963939 v -1.946246 h 9.801998 z m 10.598205,9.837384 h -1.946244 v -1.981632 h -1.963939 v -1.963938 h -1.981631 v 3.94557 H 25.79131 v -1.981632 h -1.963937 v -9.801998 h 1.946244 v 1.963939 h 1.963939 v 3.927875 h 1.981631 v -5.891814 h 1.946245 v 1.963939 h 1.963938 z m 11.217463,-9.837384 h -5.891814 v 1.981631 h 3.927875 v 1.946245 h -3.927875 v 3.963262 H 40.93665 V 21.08492 h 1.946244 v 3.927877 h -5.87412 v -1.981632 h -1.963939 v -7.838059 h 1.963939 v -1.963939 h 7.838059 z m 21.939519,9.837384 h -1.946245 v -1.981632 h -1.963939 v -1.963938 h -1.981631 v 5.909507 h -1.946246 v -1.963937 h -1.963937 v -9.819691 h 1.963937 v -1.963939 h 5.874122 v 1.963939 h 1.963939 z M 62.858474,17.13935 V 15.193106 H 60.91223 v 1.946244 z m 15.039175,5.891815 h -1.963941 v 1.981632 h -3.910183 v -1.946246 h 1.963937 v -1.999324 h -5.891815 v -5.874121 h 1.963939 v -1.963939 h 5.874122 v 1.946246 h -3.927877 v 1.981631 h 5.891818 z m 10.934361,0 h -1.963934 v 1.981632 h -3.910191 v -1.946246 h 1.963945 v -1.999324 h -5.89182 v -5.874121 h 1.963941 v -1.963939 h 5.874125 v 1.946246 h -3.927885 v 1.981631 h 5.891819 z m 10.934358,-7.855752 h -5.891816 v 1.981631 h 3.927882 v 1.946245 h -3.927882 v 3.963262 h 1.981635 V 21.08492 h 1.946247 v 3.927877 h -5.874121 v -1.981632 h -1.963942 v -7.838059 h 1.963942 v -1.963939 h 7.838055 z m 16.613882,9.837384 h -1.96395 v 1.963937 h -1.94624 V 17.13935 h -1.98163 v 5.891815 h -1.94625 v -1.963938 h -1.96394 v -1.963938 h -1.98163 v 3.927876 h -1.96393 v 1.981632 h -1.94625 v -9.819691 h 1.96393 v -1.963939 h 1.94625 v 1.963939 h 1.96394 v 1.963938 h 1.98163 v -1.963938 h 1.96394 v -1.963939 h 3.91018 v 1.963939 h 1.96395 z m 11.12898,-1.981632 h -1.96394 v 1.981632 h -1.96393 v 1.963937 h -3.91019 v -1.963937 h -1.96394 v -9.819691 h 1.96394 v -1.963939 h 5.87412 v 1.963939 h 1.96394 v 1.946244 h -1.96394 v 1.981631 h 1.96394 z m -3.92787,-5.891815 v -1.946244 h -1.94625 v 1.946244 z m 0,5.891815 V 21.08492 h -1.94625 v 1.946245 z m 11.04051,1.981632 h -3.91018 v -1.981632 h -1.96394 v -7.838059 h 1.96394 v -1.963939 h 1.94624 v 9.837384 h 1.96394 z m 10.89897,0 h -1.96394 v 1.963937 h -3.91018 v -1.963937 h -1.96395 v -1.946246 h 3.92788 v -1.999324 h -3.92788 v -1.963938 h -1.96393 v -3.910183 h 1.96393 v -1.963939 h 1.94625 v 3.927877 h 1.96394 v 1.963937 h 1.98163 v -3.927875 h 1.94625 z"
           id="path85"
           style="font-size:22.5778px;font-family:'Oxygene 1';-inkscape-font-specification:'Oxygene 1, Normal';fill:url(#linearGradient12);stroke-width:0.207341"
           aria-label="THE ASSEMBLY"
           inkscape:label="gradient" /><path
           id="path86"
           style="font-size:22.5778px;font-family:'Oxygene 1';-inkscape-font-specification:'Oxygene 1, Normal';fill:url(#linearGradient8);stroke-width:0.207341"
           inkscape:label="bottom-dark"
           d="m 13.229167,13.852384 v 1.322917 h 1.963704 v -1.322917 z m 5.87406,0 v 1.322917 h 3.927925 v -1.322917 z m 19.852018,0 v 1.322917 h 5.89163 v -1.322917 z m 33.050696,0 v 1.322917 h 3.927925 v -1.322917 z m 10.934216,0 v 1.322917 h 3.927926 v -1.322917 z m 10.934216,0 v 1.322917 h 5.892147 v -1.322917 z m -32.962329,0.01757 v 1.322917 h 1.946651 v -1.322917 z m 60.722906,0 v 1.322917 h 1.94665 v -1.322917 z m -11.1466,1.946652 v 1.322916 h 1.98179 v -1.322916 z m 15.05696,0 v 1.322916 h 1.9637 V 15.816606 Z M 38.955245,17.78031 v 1.322917 h 3.927409 V 17.78031 Z m 54.919128,0 v 1.322917 h 3.927926 V 17.78031 Z m 10.722347,0 v 1.322917 h 1.98127 V 17.78031 Z m 31.12213,0 v 1.322917 h 1.9637 V 17.78031 Z M 27.737325,19.744531 v 1.322917 h 1.981791 v -1.322917 z m 33.157149,0 v 1.322917 h 1.981791 v -1.322917 z m 7.201111,0 v 1.322917 h 5.89163 v -1.322917 z m 10.934216,0 v 1.322917 h 5.892147 v -1.322917 z m 27.548189,0 v 1.322917 h 1.96422 v -1.322917 z m 31.10456,0 v 1.322917 h 3.92793 v -1.322917 z m -16.0476,0.01757 v 1.322917 h 1.94665 V 19.762101 Z M 15.192871,21.708236 v 1.322916 h 1.964221 v -1.322916 z m 8.634615,0 v 1.322916 h 1.963705 v -1.322916 z m 5.89163,0 v 1.322916 h 1.964221 v -1.322916 z m 5.325773,0 v 1.322916 h 1.963705 v -1.322916 z m 27.831376,0 v 1.322916 h 1.963705 v -1.322916 z m 13.057601,0 v 1.322916 h 1.963705 v -1.322916 z m 10.934217,0 v 1.322916 h 1.963704 v -1.322916 z m 3.096452,0 v 1.322916 h 1.963704 v -1.322916 z m 12.667965,0 v 1.322916 h 1.96422 v -1.322916 z m 5.90971,0 v 1.322916 h 1.94614 v -1.322916 z m 17.0031,0 v 1.322916 h 1.9637 v -1.322916 z m 3.20239,0 v 1.322916 h 1.96422 V 21.708236 Z M 17.157092,23.690027 v 1.322917 h 1.946135 v -1.322917 z m 8.634099,0 v 1.322917 h 1.946134 v -1.322917 z m 5.892146,0 v 1.322917 h 1.946135 v -1.322917 z m 5.325257,0 v 1.322917 h 5.87406 v -1.322917 z m 19.975525,0 v 1.322917 h 1.964221 v -1.322917 z m 7.855851,0 v 1.322917 h 1.946134 v -1.322917 z m 7.183541,0 v 1.322917 h 3.910355 v -1.322917 z m 10.934216,0 v 1.322917 h 3.910356 v -1.322917 z m 8.970512,0 v 1.322917 h 5.87406 v -1.322917 z m 8.758121,0 v 1.322917 h 1.94614 v -1.322917 z m 13.72991,0 v 1.322917 h 1.96422 v -1.322917 z m 3.29076,0 v 1.322917 h 1.96422 v -1.322917 z m 5.87457,0 v 1.322917 h 1.96371 v -1.322917 z m 7.13032,0 v 1.322917 h 3.90984 v -1.322917 z m 6.97063,0 v 1.322917 h 1.96422 v -1.322917 z m 5.87458,0 v 1.322917 h 1.9637 v -1.322917 z m -84.60879,1.963704 v 1.322917 h 1.946134 v -1.322917 z m 53.5218,0 v 1.322917 h 1.94613 v -1.322917 z m 7.20111,0 v 1.322917 h 3.91035 v -1.322917 z m 19.97552,0 v 1.322917 h 3.91036 v -1.322917 z" /></g></g></g></svg>
